<?xml version="1.0" encoding="utf-8"?>
<!-- Generator: Adobe Illustrator 26.2.1, SVG Export Plug-In . SVG Version: 6.00 Build 0)  -->
<svg version="1.1" id="Layer_1" xmlns="http://www.w3.org/2000/svg" xmlns:xlink="http://www.w3.org/1999/xlink" x="0px" y="0px"
	 viewBox="0 0 235.9 239.7" style="enable-background:new 0 0 235.9 239.7;" xml:space="preserve">
<style type="text/css">
	.st0{fill:#8DFF8D;}
	.st1{fill:#F8B3FF;}
	.st2{fill:#101219;}
	.st3{fill:#FFFFFF;stroke:#070C1E;stroke-width:1.8651;stroke-linejoin:round;stroke-miterlimit:10;}
	.st4{fill:none;stroke:#070C1E;stroke-width:18.6514;stroke-linecap:round;stroke-miterlimit:10;}
	.st5{fill:#070C1E;}
	.st6{fill:#FFFFFF;}
	.st7{fill:#FFFFFF;stroke:#070C1E;stroke-width:1.8651;stroke-miterlimit:10;}
	.st8{fill:none;stroke:#070C1E;stroke-width:1.8651;stroke-miterlimit:10;}
	.st9{fill:#FFFC92;}
	.st10{fill:#578BFF;}
	.st11{fill:#FFFFFF;stroke:#070C1E;stroke-width:1.5091;stroke-linejoin:round;stroke-miterlimit:10;}
	.st12{fill:none;stroke:#000000;stroke-miterlimit:10;}
	.st13{fill:#FAA4FF;stroke:#000000;stroke-miterlimit:10;}
	.st14{fill:#111214;}
	.st15{fill:#070C1E;stroke:#070C1E;stroke-width:3;stroke-miterlimit:10;}
	.st16{fill:none;stroke:#070C1E;stroke-linejoin:round;stroke-miterlimit:10;}
	.st17{fill:#FAA4FF;}
	.st18{fill:#070C1E;stroke:#FFFFFF;stroke-width:1.5091;stroke-linejoin:round;stroke-miterlimit:10;}
	.st19{fill:#FFFFFF;stroke:#070C1E;stroke-width:4.3288;stroke-linejoin:round;stroke-miterlimit:10;}
	.st20{fill:none;stroke:#070C1E;stroke-width:43.2883;stroke-linecap:round;stroke-miterlimit:10;}
	.st21{fill:#FFFFFF;stroke:#070C1E;stroke-width:4.3288;stroke-miterlimit:10;}
	.st22{fill:none;stroke:#070C1E;stroke-width:4.3288;stroke-miterlimit:10;}
	.st23{fill:#070C1E;stroke:#070C1E;stroke-width:6.9627;stroke-miterlimit:10;}
	.st24{fill:none;stroke:#070C1E;stroke-width:2.3209;stroke-linejoin:round;stroke-miterlimit:10;}
	.st25{fill:none;stroke:#000000;stroke-width:17;stroke-linecap:round;stroke-miterlimit:10;}
	.st26{fill:none;stroke:#101219;stroke-width:96.6166;stroke-linecap:round;stroke-miterlimit:10;}
	.st27{fill:#64CBFF;}
	.st28{fill:#070C1E;stroke:#070C1E;stroke-width:22.6913;stroke-miterlimit:10;}
	.st29{opacity:8.000000e-02;fill:#070C1E;}
	.st30{opacity:8.000000e-02;}
</style>
<g>
	<path class="st17" d="M73,23.3l6.2-2.1l8.5,10.8l0.1,0l0.1-13.7l6.2-2.1l6.4,18.7l-4.1,1.4l-4.9-14.4l-0.1,0l0,16.1L88.3,39
		l-9.7-12.8l-0.1,0l4.9,14.4l-4.1,1.4L73,23.3z"/>
	<path class="st17" d="M120.9,13.8l13.4,1.2l-0.4,4l-9.1-0.8l-0.3,3.7l8.6,0.8l-0.4,4l-8.6-0.8l-0.4,4l9.6,0.9l-0.4,4l-13.9-1.2
		L120.9,13.8z"/>
	<path class="st17" d="M154.1,30.3c0.8-1.4,1.7-2.5,2.8-3.4c1.1-0.9,2.3-1.5,3.5-1.8c1.3-0.3,2.6-0.4,4-0.2c1.4,0.2,2.8,0.7,4.1,1.4
		c1.4,0.7,2.5,1.6,3.4,2.7c0.9,1,1.6,2.2,2,3.4c0.4,1.2,0.5,2.6,0.4,4c-0.1,1.4-0.6,2.8-1.3,4.2c-0.8,1.4-1.7,2.5-2.8,3.4
		s-2.3,1.5-3.5,1.8s-2.6,0.4-4,0.2c-1.4-0.2-2.8-0.7-4.1-1.4c-1.4-0.7-2.5-1.6-3.4-2.7c-0.9-1-1.6-2.2-2-3.4c-0.4-1.2-0.5-2.6-0.4-4
		S153.3,31.7,154.1,30.3z M158.1,32.4c-0.4,0.8-0.7,1.6-0.8,2.5c-0.1,0.8-0.1,1.6,0.1,2.4c0.2,0.8,0.6,1.5,1.1,2.1
		c0.5,0.6,1.2,1.2,2,1.6c0.8,0.4,1.6,0.7,2.5,0.8c0.8,0.1,1.6,0,2.3-0.2c0.7-0.2,1.4-0.6,2.1-1.2c0.6-0.5,1.2-1.2,1.6-2
		c0.4-0.8,0.7-1.6,0.8-2.4c0.1-0.8,0.1-1.6-0.1-2.4c-0.2-0.8-0.6-1.5-1.1-2.1s-1.2-1.2-2-1.6c-0.8-0.4-1.6-0.7-2.5-0.8
		c-0.8-0.1-1.6,0-2.3,0.2c-0.7,0.2-1.4,0.6-2.1,1.2C159,30.9,158.5,31.6,158.1,32.4z"/>
	<path class="st17" d="M196.3,47.2l2.8,3.9l-8.5,9.9l0,0l12.8-4l2.3,3.3l-8.3,10.9l0,0l12.6-4.8l2.6,3.6L193,76.9l-2.3-3.2l8.7-11.5
		l0,0l-13.7,4.4l-2.2-3.1L196.3,47.2z"/>
	<path class="st17" d="M210.9,95.4c0.7-0.1,1.3-0.1,2,0c0.6,0.1,1.2,0.4,1.8,0.7c0.5,0.3,1,0.8,1.4,1.3c0.4,0.5,0.6,1.1,0.8,1.8
		s0.1,1.3,0,2c-0.1,0.6-0.4,1.2-0.7,1.8c-0.3,0.5-0.8,1-1.3,1.4c-0.5,0.4-1.1,0.6-1.8,0.8s-1.3,0.1-2,0c-0.6-0.1-1.2-0.4-1.8-0.7
		c-0.5-0.3-1-0.8-1.4-1.3c-0.4-0.5-0.6-1.1-0.8-1.8c-0.1-0.7-0.1-1.3,0-2c0.1-0.6,0.4-1.2,0.7-1.8c0.3-0.5,0.8-1,1.3-1.4
		C209.6,95.8,210.2,95.5,210.9,95.4z"/>
	<path class="st17" d="M224,129.4l-1.3,6.5l-13.6,2l0,0.1l11.8,7l-1.3,6.5l-19.5-3.8l0.8-4.3l14.9,2.9l0-0.1l-13.9-8l0.6-3.3l15.9-2
		l0-0.1l-14.9-2.9l0.8-4.3L224,129.4z"/>
	<path class="st17" d="M208.2,175.7l-7.8,11l-3.3-2.3l5.3-7.4l-3-2.1l-5,7l-3.3-2.3l5-7l-3.3-2.3l-5.6,7.8l-3.3-2.3l8.1-11.4
		L208.2,175.7z"/>
	<path class="st17" d="M177.3,196.1c0.8,1.4,1.4,2.7,1.6,4.1c0.2,1.4,0.2,2.7-0.2,4c-0.3,1.3-0.9,2.5-1.8,3.6
		c-0.9,1.1-1.9,2.1-3.3,2.9c-1.3,0.8-2.7,1.4-4,1.6c-1.4,0.3-2.7,0.3-4,0c-1.3-0.3-2.5-0.8-3.6-1.6c-1.1-0.8-2.1-1.9-2.9-3.3
		s-1.4-2.7-1.6-4.1s-0.2-2.7,0.2-4s0.9-2.5,1.8-3.6c0.9-1.1,1.9-2.1,3.3-2.9c1.3-0.8,2.7-1.4,4-1.6c1.4-0.3,2.7-0.3,4,0
		c1.3,0.3,2.5,0.8,3.6,1.6C175.5,193.6,176.4,194.7,177.3,196.1z M173.4,198.4c-0.5-0.8-1.1-1.4-1.7-2c-0.7-0.5-1.4-0.9-2.1-1.1
		c-0.8-0.2-1.5-0.2-2.4-0.1c-0.8,0.1-1.6,0.4-2.4,0.9c-0.8,0.5-1.4,1.1-1.9,1.7c-0.5,0.7-0.8,1.4-1,2.2c-0.2,0.8-0.2,1.6,0,2.4
		c0.2,0.8,0.5,1.6,1,2.4c0.5,0.8,1,1.4,1.7,1.9c0.7,0.5,1.4,0.9,2.1,1.1c0.8,0.2,1.5,0.2,2.4,0.1c0.8-0.1,1.6-0.4,2.4-0.9
		c0.8-0.5,1.4-1.1,1.9-1.7c0.5-0.7,0.8-1.4,1-2.2s0.2-1.6,0-2.4S173.9,199.2,173.4,198.4z"/>
	<path class="st17" d="M141.4,224.1l-4.7,0.4l-4.3-12.4l-0.1,0l-3,13l-4,0.4l-5.3-12.6l-0.1,0l-2.2,13.3l-4.4,0.4l4-20.3l3.9-0.3
		l5.6,13.3l0.1,0l3.1-14.1l3.7-0.3L141.4,224.1z"/>
	<path class="st17" d="M92.4,212.5c-0.2,0.7-0.5,1.2-1,1.7s-0.9,0.9-1.5,1.2s-1.2,0.5-1.8,0.5c-0.6,0.1-1.3,0-2-0.2
		c-0.7-0.2-1.2-0.5-1.7-1s-0.9-0.9-1.2-1.5c-0.3-0.6-0.5-1.2-0.5-1.8c-0.1-0.6,0-1.3,0.2-2c0.2-0.7,0.5-1.2,1-1.7
		c0.4-0.5,0.9-0.9,1.5-1.2s1.2-0.5,1.8-0.5c0.6-0.1,1.3,0,2,0.2c0.7,0.2,1.2,0.5,1.7,1s0.9,0.9,1.2,1.5c0.3,0.6,0.5,1.2,0.5,1.8
		C92.7,211.2,92.7,211.9,92.4,212.5z"/>
	<path class="st17" d="M56.4,206.7l-5-4.4l5.1-12.7l0,0l-12,6.7l-4.9-4.3l13.1-14.9l3.3,2.9l-10,11.4l0,0l14-8l2.5,2.2l-6.3,14.7
		l0,0l10-11.4l3.3,2.9L56.4,206.7z"/>
	<path class="st17" d="M24.4,169.9l-5.6-12.2l3.7-1.7l3.8,8.3l3.4-1.5l-3.6-7.8l3.7-1.7l3.6,7.8l3.7-1.7l-4-8.7l3.7-1.7l5.8,12.7
		L24.4,169.9z"/>
	<path class="st17" d="M22.3,132.9c-1.6,0-3-0.2-4.3-0.7c-1.3-0.5-2.4-1.2-3.3-2.1c-0.9-0.9-1.6-2-2.2-3.3c-0.5-1.3-0.8-2.7-0.8-4.3
		c0-1.5,0.2-3,0.6-4.3c0.5-1.3,1.1-2.5,2-3.4s2-1.7,3.2-2.3c1.3-0.6,2.7-0.9,4.3-0.9c1.6,0,3,0.2,4.3,0.7c1.3,0.5,2.4,1.2,3.3,2.1
		c0.9,0.9,1.7,2,2.2,3.3c0.5,1.3,0.8,2.7,0.8,4.3c0,1.5-0.2,3-0.6,4.3c-0.5,1.3-1.1,2.5-2,3.4c-0.9,1-2,1.7-3.2,2.3
		C25.3,132.5,23.9,132.8,22.3,132.9z M22.2,128.3c0.9,0,1.8-0.2,2.6-0.5c0.8-0.3,1.4-0.7,2-1.3c0.6-0.6,1-1.2,1.3-2
		c0.3-0.8,0.4-1.6,0.4-2.5c0-0.9-0.2-1.8-0.5-2.5c-0.3-0.7-0.8-1.4-1.4-1.9c-0.6-0.5-1.3-0.9-2-1.2s-1.6-0.4-2.6-0.4
		c-0.9,0-1.8,0.2-2.5,0.5c-0.8,0.3-1.4,0.7-2,1.3c-0.6,0.6-1,1.2-1.3,2c-0.3,0.8-0.4,1.6-0.4,2.5c0,0.9,0.2,1.8,0.5,2.5
		c0.3,0.7,0.8,1.4,1.4,1.9c0.6,0.5,1.3,0.9,2.1,1.2C20.4,128.2,21.3,128.4,22.2,128.3z"/>
	<path class="st17" d="M16.1,87.8l2-4.3L30.9,86l0-0.1l-9.8-9.1l1.7-3.7l13.6,1.8l0-0.1l-10.4-8.5l1.9-4l15.5,13.7l-1.6,3.5
		l-14.3-1.9l0,0.1l10.6,9.8l-1.6,3.4L16.1,87.8z"/>
	<path class="st17" d="M50.7,51.3c-0.5-0.5-0.8-1.1-1-1.7s-0.3-1.2-0.2-1.9c0-0.6,0.2-1.2,0.5-1.8c0.3-0.6,0.7-1.1,1.2-1.6
		c0.5-0.5,1.1-0.8,1.7-1c0.6-0.2,1.2-0.3,1.9-0.2c0.6,0,1.2,0.2,1.8,0.5s1.1,0.7,1.6,1.2c0.5,0.5,0.8,1.1,1,1.7
		c0.2,0.6,0.3,1.2,0.2,1.9c0,0.6-0.2,1.2-0.5,1.8s-0.7,1.1-1.2,1.6c-0.5,0.5-1.1,0.8-1.7,1c-0.6,0.2-1.2,0.3-1.9,0.2
		c-0.6,0-1.2-0.2-1.8-0.5C51.6,52.2,51.1,51.8,50.7,51.3z"/>
</g>
</svg>
