<?xml version="1.0" encoding="utf-8"?>
<!-- Generator: Adobe Illustrator 26.2.1, SVG Export Plug-In . SVG Version: 6.00 Build 0)  -->
<svg version="1.1" id="Layer_1" xmlns="http://www.w3.org/2000/svg" xmlns:xlink="http://www.w3.org/1999/xlink" x="0px" y="0px"
	 viewBox="0 0 848.7 630.1" style="enable-background:new 0 0 848.7 630.1;" xml:space="preserve">
<style type="text/css">
	.st0{fill:#F8B3FF;}
	.st1{fill:none;stroke:#000000;stroke-width:0.5317;stroke-miterlimit:10;}
	.st2{fill:#101219;}
	.st3{fill:#FFFFFF;stroke:#070C1E;stroke-width:1.8651;stroke-linejoin:round;stroke-miterlimit:10;}
	.st4{fill:none;stroke:#070C1E;stroke-width:18.6514;stroke-linecap:round;stroke-miterlimit:10;}
	.st5{fill:#070C1E;}
	.st6{fill:#FFFFFF;}
	.st7{fill:#FFFFFF;stroke:#070C1E;stroke-width:1.8651;stroke-miterlimit:10;}
	.st8{fill:none;stroke:#070C1E;stroke-width:1.8651;stroke-miterlimit:10;}
	.st9{fill:#FFFFFF;stroke:#000000;stroke-width:1.6118;stroke-miterlimit:10;}
	.st10{fill:none;stroke:#FAA4FF;stroke-miterlimit:10;}
	.st11{fill:#FFFFFF;stroke:#070C1E;stroke-width:1.5091;stroke-linejoin:round;stroke-miterlimit:10;}
	.st12{fill:none;stroke:#000000;stroke-miterlimit:10;}
	.st13{fill:#FAA4FF;stroke:#000000;stroke-miterlimit:10;}
	.st14{fill:#111214;}
	.st15{fill:#070C1E;stroke:#070C1E;stroke-width:3;stroke-miterlimit:10;}
	.st16{fill:#F8B3FF;stroke:#F8B3FF;stroke-miterlimit:10;}
	.st17{fill:none;stroke:#070C1E;stroke-linejoin:round;stroke-miterlimit:10;}
	.st18{fill:#8DFF8D;}
	.st19{fill:#FAA4FF;}
	.st20{fill:#FFFC92;}
	.st21{fill:#578BFF;}
	.st22{fill:#070C1E;stroke:#FFFFFF;stroke-width:1.5091;stroke-linejoin:round;stroke-miterlimit:10;}
	.st23{fill:#FFFFFF;stroke:#070C1E;stroke-width:4.3288;stroke-linejoin:round;stroke-miterlimit:10;}
	.st24{fill:none;stroke:#070C1E;stroke-width:43.2883;stroke-linecap:round;stroke-miterlimit:10;}
	.st25{fill:#FFFFFF;stroke:#070C1E;stroke-width:4.3288;stroke-miterlimit:10;}
	.st26{fill:none;stroke:#070C1E;stroke-width:4.3288;stroke-miterlimit:10;}
	.st27{fill:#070C1E;stroke:#070C1E;stroke-width:6.9627;stroke-miterlimit:10;}
	.st28{fill:none;stroke:#070C1E;stroke-width:2.3209;stroke-linejoin:round;stroke-miterlimit:10;}
</style>
<g>
	<circle class="st0" cx="289" cy="352" r="272.3"/>
	<path class="st2" d="M787.9,559.3H93.9c-24.3,0-44.1-19.9-44.1-44.1v0c0-24.3,19.9-44.1,44.1-44.1h694.1
		c24.3,0,44.1,19.9,44.1,44.1v0C832,539.5,812.2,559.3,787.9,559.3z"/>
	<polygon class="st23" points="369.2,495 134.3,495 134.3,188 369.2,188 379.9,403 	"/>
	<path class="st24" d="M224.8,310.4c0,0-49.5-9.9-44.7-77.6c4.8-67.7,54-73.8,86.1-62.7c38.3,13.2,40,44.6,40,44.6"/>
	<polygon class="st23" points="297.5,352 62.6,352 134.3,188 369.2,188 	"/>
	<path class="st23" d="M369.2,495h387.4v-53.4c0-1-0.3-2-0.8-2.9l-2.7-4.7c-1.3-2.3-0.9-5.2,1-7.1v0c1.5-1.5,2.1-3.7,1.5-5.8l-4-14
		c-0.5-1.6-0.2-3.4,0.7-4.8l3.2-4.9c0.6-1,1-2.1,1-3.2V188H369.2v183.3c0,2.1-0.6,4.2-1.6,6v0c-2,3.4-2.2,7.5-0.5,11.1l2.1,4.7
		l2.3,4.7c1.5,3.1,1.7,6.6,0.4,9.8l-2.8,7.1V495z"/>
	
		<ellipse transform="matrix(0.9974 -7.213087e-02 7.213087e-02 0.9974 -12.6479 42.6718)" class="st2" cx="584.5" cy="196.5" rx="97.5" ry="86.6"/>
	<polygon class="st23" points="423.1,352 810.5,352 756.6,188 369.2,188 	"/>
	<path class="st24" d="M224.8,310.4c0,0-49.5-9.9-44.7-77.6c3.3-47.2,28.3-64.5,54-66.8"/>
	<path class="st5" d="M487.5,251.5L487.5,251.5c-17.2,4.9-34.2-3.5-37.9-18.6l-8.2-33.6c-2.9-11.9,5.7-24.7,19.3-28.5L474,167
		c13.6-3.8,26.9,2.8,29.8,14.7l8.2,33.6C515.7,230.4,504.7,246.6,487.5,251.5z"/>
	<path class="st2" d="M578,137.9c0,0-9.4-48.3-39-62.6c0,0-47.8,41.4-25.8,85.4C535.4,204.6,578,137.9,578,137.9z"/>
	<path class="st2" d="M610,141.1c0,0,23-45.1,55.9-53c0,0,34.5,49.7,0.4,88C632.2,214.4,610,141.1,610,141.1z"/>
	<path class="st6" d="M551.3,146.6c-7-0.5-13.6,3.6-14.8,9c-0.4,1.9-0.1,3.7,0.8,5.3c2.8-2.7,7.2-4.3,11.8-4
		c4.6,0.3,8.1,2.5,9.8,5.5c1.5-1.4,2.6-3.2,3-5.1C563,151.9,558.3,147.1,551.3,146.6z"/>
	<path class="st6" d="M609,148.3c-7-0.5-13.6,3.6-14.8,9c-0.4,1.9-0.1,3.7,0.8,5.3c2.8-2.7,7.2-4.3,11.8-4c4.6,0.3,8.1,2.5,9.8,5.5
		c1.5-1.4,2.6-3.2,3-5.1C620.8,153.6,616,148.8,609,148.3z"/>
	<circle class="st25" cx="144.1" cy="486" r="35.7"/>
	<path class="st25" d="M108.7,491.2c0,0,18.1,13.5,28.5-2.3c6.8-10.4-10.9-29.9,14-37.8"/>
	<path class="st26" d="M136.7,530.9c0,0-11.8-19.2,4.8-28.2c11-5.9,28.8,13.6,38.9-10.6"/>
	<circle class="st27" cx="71.7" cy="60.1" r="9.1"/>
	<circle class="st27" cx="170.6" cy="60.1" r="9.1"/>
	<circle class="st27" cx="120" cy="60.1" r="9.1"/>
	<circle class="st27" cx="71.7" cy="112.3" r="9.1"/>
	<circle class="st27" cx="170.6" cy="112.3" r="9.1"/>
	<circle class="st27" cx="120" cy="112.3" r="9.1"/>
	<circle class="st27" cx="71.7" cy="14.9" r="9.1"/>
	<circle class="st27" cx="170.6" cy="14.9" r="9.1"/>
	<circle class="st27" cx="120" cy="14.9" r="9.1"/>
	<line class="st28" x1="464.3" y1="250.1" x2="483.5" y2="297.9"/>
	<line class="st28" x1="481.5" y1="246.1" x2="500.6" y2="294"/>
	<line class="st28" x1="491.7" y1="228.6" x2="510.8" y2="276.4"/>
	<line class="st28" x1="508.8" y1="224.7" x2="527.9" y2="272.5"/>
	<path class="st19" d="M567.6,168.7l14.5,1.1c2.3,0.2,3.2,3,1.4,4.5l-9.1,7.6c-1.2,1-3,0.7-3.8-0.6l-5.4-8.8
		C564.2,170.8,565.6,168.6,567.6,168.7z"/>
</g>
</svg>
