<?xml version="1.0" encoding="utf-8"?>
<!-- Generator: Adobe Illustrator 26.2.1, SVG Export Plug-In . SVG Version: 6.00 Build 0)  -->
<svg version="1.1" id="Layer_1" xmlns="http://www.w3.org/2000/svg" xmlns:xlink="http://www.w3.org/1999/xlink" x="0px" y="0px"
	 viewBox="0 0 1080 1080" style="enable-background:new 0 0 1080 1080;" xml:space="preserve">
<style type="text/css">
	.st0{fill:#8DFF8D;}
	.st1{fill:#F8B3FF;}
	.st2{fill:#101219;}
	.st3{fill:#FFFFFF;stroke:#070C1E;stroke-width:1.8651;stroke-linejoin:round;stroke-miterlimit:10;}
	.st4{fill:none;stroke:#070C1E;stroke-width:18.6514;stroke-linecap:round;stroke-miterlimit:10;}
	.st5{fill:#070C1E;}
	.st6{fill:#FFFFFF;}
	.st7{fill:#FFFFFF;stroke:#070C1E;stroke-width:1.8651;stroke-miterlimit:10;}
	.st8{fill:none;stroke:#070C1E;stroke-width:1.8651;stroke-miterlimit:10;}
	.st9{fill:#FFFC92;}
	.st10{fill:#578BFF;}
	.st11{fill:#FFFFFF;stroke:#070C1E;stroke-width:1.5091;stroke-linejoin:round;stroke-miterlimit:10;}
	.st12{fill:none;stroke:#000000;stroke-miterlimit:10;}
	.st13{fill:#FAA4FF;stroke:#000000;stroke-miterlimit:10;}
	.st14{fill:#111214;}
	.st15{fill:#070C1E;stroke:#070C1E;stroke-width:3;stroke-miterlimit:10;}
	.st16{fill:none;stroke:#070C1E;stroke-linejoin:round;stroke-miterlimit:10;}
	.st17{fill:#FAA4FF;}
	.st18{fill:#070C1E;stroke:#FFFFFF;stroke-width:1.5091;stroke-linejoin:round;stroke-miterlimit:10;}
	.st19{fill:#FFFFFF;stroke:#070C1E;stroke-width:4.3288;stroke-linejoin:round;stroke-miterlimit:10;}
	.st20{fill:none;stroke:#070C1E;stroke-width:43.2883;stroke-linecap:round;stroke-miterlimit:10;}
	.st21{fill:#FFFFFF;stroke:#070C1E;stroke-width:4.3288;stroke-miterlimit:10;}
	.st22{fill:none;stroke:#070C1E;stroke-width:4.3288;stroke-miterlimit:10;}
	.st23{fill:#070C1E;stroke:#070C1E;stroke-width:6.9627;stroke-miterlimit:10;}
	.st24{fill:none;stroke:#070C1E;stroke-width:2.3209;stroke-linejoin:round;stroke-miterlimit:10;}
	.st25{fill:none;stroke:#000000;stroke-width:17;stroke-linecap:round;stroke-miterlimit:10;}
	.st26{fill:none;stroke:#101219;stroke-width:96.6166;stroke-linecap:round;stroke-miterlimit:10;}
	.st27{fill:#64CBFF;}
	.st28{fill:#070C1E;stroke:#070C1E;stroke-width:22.6913;stroke-miterlimit:10;}
	.st29{opacity:8.000000e-02;fill:#070C1E;}
	.st30{opacity:8.000000e-02;}
</style>
<path class="st0" d="M932.6,1062.2H147.4c-71.6,0-129.6-58-129.6-129.6V147.4c0-71.6,58-129.6,129.6-129.6h785.3
	c71.6,0,129.6,58,129.6,129.6v785.3C1062.2,1004.2,1004.2,1062.2,932.6,1062.2z"/>
<ellipse transform="matrix(0.9974 -7.213087e-02 7.213087e-02 0.9974 -30.8779 33.6683)" class="st2" cx="450.7" cy="444.4" rx="273.5" ry="242.9"/>
<path class="st2" d="M432.6,280.1c0,0-26.3-135.5-109.2-175.5c0,0-134.1,116.2-72.3,239.4S432.6,280.1,432.6,280.1z"/>
<path class="st2" d="M522.3,289.1c0,0,64.6-126.3,156.6-148.7c0,0,96.7,139.4,1.2,246.8S522.3,289.1,522.3,289.1z"/>
<path class="st0" d="M357.6,304.6c-19.6-1.4-38.2,10-41.5,25.3c-1.1,5.4-0.2,10.5,2.3,14.9c8-7.5,20.2-12,33-11.1
	c12.8,0.9,22.8,7,27.4,15.3c4.3-4,7.4-8.8,8.5-14.2C390.6,319.5,377.3,306,357.6,304.6z"/>
<path class="st0" d="M519.5,309.4c-19.6-1.4-38.2,10-41.5,25.3c-1.1,5.4-0.2,10.5,2.3,14.9c8-7.5,20.2-12,33-11.1
	c12.8,0.9,22.8,7,27.4,15.3c4.3-4,7.4-8.8,8.5-14.2C552.4,324.3,539.1,310.8,519.5,309.4z"/>
<path class="st2" d="M242.5,575.5c0,0-159.1,181-85.4,488.6h611.4c0,0,74.6-310.3-146.6-467.8L242.5,575.5z"/>
<path class="st17" d="M394.5,368l35.5,2.8c5.6,0.4,7.8,7.4,3.5,11l-22.4,18.7c-2.9,2.4-7.3,1.7-9.3-1.5l-13.1-21.5
	C386,373.1,389.4,367.6,394.5,368z"/>
<path class="st26" d="M961,611.2c0,0-122-0.8-126.6,235.4c-2.4,126.3-112.4,186.6-193.1,142.2"/>
</svg>
